<?xml version="1.0" encoding="utf-8"?>
<!-- Generator: Adobe Illustrator 23.1.0, SVG Export Plug-In . SVG Version: 6.00 Build 0)  -->
<svg version="1.1" id="Layer_1" xmlns="http://www.w3.org/2000/svg" xmlns:xlink="http://www.w3.org/1999/xlink" x="0px" y="0px"
	 viewBox="0 0 512 512" style="enable-background:new 0 0 512 512;" xml:space="preserve">
<style type="text/css">
	.st0{fill:#34D399;}
</style>
<title>logo</title>
<circle class="st0" cx="256.7" cy="256.9" r="52.1"/>
<path class="st0" d="M384.7,179.5H438L512,0H223.5C121.8,0,38.5,80.8,38.5,179.5l0,0c0,64.6,35.6,121.5,88.8,153.1H74L0,512h288.5
	c101.7,0,185-80.8,185-179.4l0,0C473.5,268,437.8,211.1,384.7,179.5z M406.1,406.2L348,375c-65.2,50.4-159,38.4-209.5-26.8
	s-38.4-159,26.8-209.5s159-38.4,209.5,26.8c20.2,26.2,31.2,58.3,31.2,91.3L406.1,406.2z"/>
</svg>
